<?xml version="1.0" encoding="utf-8"?>
<!-- Generator: Adobe Illustrator 13.0.2, SVG Export Plug-In . SVG Version: 6.00 Build 14948)  -->
<!DOCTYPE svg PUBLIC "-//W3C//DTD SVG 1.1//EN" "http://www.w3.org/Graphics/SVG/1.1/DTD/svg11.dtd">
<svg version="1.1" id="Layer_1" xmlns="http://www.w3.org/2000/svg" xmlns:xlink="http://www.w3.org/1999/xlink" x="0px" y="0px"
	 width="99.894px" height="120.403px" viewBox="0 0 99.894 120.403" enable-background="new 0 0 99.894 120.403"
	 xml:space="preserve">
<g>
	<g>
		<g>
			<g>
				<g>
					<linearGradient id="SVGID_1_" gradientUnits="userSpaceOnUse" x1="30.4121" y1="41.2261" x2="-1.0879" y2="9.7261">
						<stop  offset="0" style="stop-color:#AB710A"/>
						<stop  offset="1" style="stop-color:#E3A835"/>
					</linearGradient>
					<path fill="url(#SVGID_1_)" d="M72.466,9.979L12.09,0.018c-0.158-0.027-0.312-0.022-0.458,0.01
						c-0.144,0.031-0.279,0.089-0.396,0.168c-0.116,0.078-0.217,0.18-0.291,0.299c-0.076,0.118-0.127,0.254-0.146,0.402L0.01,83.774
						c-0.021,0.166-0.007,0.329,0.036,0.479c0.044,0.151,0.118,0.291,0.215,0.412s0.218,0.223,0.358,0.299
						c0.139,0.077,0.297,0.127,0.466,0.144l78.799,7.888l-21.269,18.691l7.006,8.717l34.272-30.811L71.215,53.704l-8.022,6.535
						l17.516,21.887l-66.567-7.248c-0.165-0.018-0.318-0.068-0.454-0.145c-0.136-0.075-0.256-0.176-0.352-0.295
						c-0.095-0.12-0.168-0.258-0.211-0.406c-0.044-0.148-0.058-0.309-0.038-0.473l7.398-60.543c0.019-0.15,0.068-0.288,0.142-0.408
						c0.074-0.122,0.172-0.225,0.288-0.307c0.115-0.082,0.248-0.142,0.392-0.175c0.143-0.033,0.297-0.04,0.454-0.015l39.643,6.227
						c0.147,0.022,0.286,0.074,0.409,0.147c0.124,0.073,0.232,0.168,0.32,0.278c0.089,0.111,0.157,0.236,0.2,0.371
						c0.043,0.135,0.061,0.279,0.047,0.427L61.313,31.13L33.187,52.51l2.467-22.396l-10.892-1.578l-4.866,41.289l41.735,4.725
						l0.962-10.783l-22.359-2.721l30.997-24.121l2.19-25.746c0.012-0.143-0.005-0.281-0.047-0.414
						c-0.042-0.131-0.109-0.255-0.196-0.362c-0.086-0.108-0.192-0.202-0.312-0.274C72.745,10.055,72.61,10.004,72.466,9.979"/>
				</g>
			</g>
		</g>
	</g>
</g>
</svg>
